<?xml version="1.0" encoding="UTF-8" standalone="no"?>
<!-- Created with Inkscape (http://www.inkscape.org/) -->

<svg
   xmlns:dc="http://purl.org/dc/elements/1.1/"
   xmlns:cc="http://creativecommons.org/ns#"
   xmlns:rdf="http://www.w3.org/1999/02/22-rdf-syntax-ns#"
   xmlns:svg="http://www.w3.org/2000/svg"
   xmlns="http://www.w3.org/2000/svg"
   xmlns:xlink="http://www.w3.org/1999/xlink"
   xmlns:sodipodi="http://sodipodi.sourceforge.net/DTD/sodipodi-0.dtd"
   xmlns:inkscape="http://www.inkscape.org/namespaces/inkscape"
   width="256mm"
   height="256mm"
   viewBox="0 0 256 256"
   version="1.1"
   id="svg8"
   inkscape:version="0.92.2 5c3e80d, 2017-08-06"
   sodipodi:docname="detecto.svg">
  <defs
     id="defs2">
    <linearGradient
       id="linearGradient4869"
       inkscape:collect="always">
      <stop
         id="stop4865"
         offset="0"
         style="stop-color:#01cbf4;stop-opacity:1" />
      <stop
         id="stop4867"
         offset="1"
         style="stop-color:#2c8aff;stop-opacity:1" />
    </linearGradient>
    <linearGradient
       inkscape:collect="always"
       id="linearGradient4813">
      <stop
         style="stop-color:#2aaaff;stop-opacity:1"
         offset="0"
         id="stop4809" />
      <stop
         style="stop-color:#5594d2;stop-opacity:1"
         offset="1"
         id="stop4811" />
    </linearGradient>
    <inkscape:path-effect
       effect="bspline"
       id="path-effect4570"
       is_visible="true"
       weight="33.333333"
       steps="2"
       helper_size="0"
       apply_no_weight="true"
       apply_with_weight="true"
       only_selected="false" />
    <inkscape:path-effect
       effect="bspline"
       id="path-effect4566"
       is_visible="true"
       weight="33.333333"
       steps="2"
       helper_size="0"
       apply_no_weight="true"
       apply_with_weight="true"
       only_selected="false" />
    <inkscape:path-effect
       effect="bspline"
       id="path-effect4562"
       is_visible="true"
       weight="33.333333"
       steps="2"
       helper_size="0"
       apply_no_weight="true"
       apply_with_weight="true"
       only_selected="false" />
    <linearGradient
       inkscape:collect="always"
       xlink:href="#linearGradient4813"
       id="linearGradient4815"
       x1="34.989506"
       y1="164.03886"
       x2="183.86546"
       y2="164.03886"
       gradientUnits="userSpaceOnUse" />
    <linearGradient
       inkscape:collect="always"
       xlink:href="#linearGradient4869"
       id="linearGradient4863"
       gradientUnits="userSpaceOnUse"
       x1="40.39748"
       y1="79.076012"
       x2="165.37282"
       y2="258.72122"
       gradientTransform="matrix(0.66036757,0,0,0.66036757,57.58001,53.67603)" />
  </defs>
  <sodipodi:namedview
     id="base"
     pagecolor="#ffffff"
     bordercolor="#666666"
     borderopacity="1.0"
     inkscape:pageopacity="0.0"
     inkscape:pageshadow="2"
     inkscape:zoom="0.50584606"
     inkscape:cx="536.26096"
     inkscape:cy="460.23198"
     inkscape:document-units="mm"
     inkscape:current-layer="layer1"
     showgrid="false"
     inkscape:snap-page="true"
     inkscape:window-width="1280"
     inkscape:window-height="746"
     inkscape:window-x="0"
     inkscape:window-y="0"
     inkscape:window-maximized="0"
     showguides="false" />
  <metadata
     id="metadata5">
    <rdf:RDF>
      <cc:Work
         rdf:about="">
        <dc:format>image/svg+xml</dc:format>
        <dc:type
           rdf:resource="http://purl.org/dc/dcmitype/StillImage" />
        <dc:title />
      </cc:Work>
    </rdf:RDF>
  </metadata>
  <g
     inkscape:label="Layer 1"
     inkscape:groupmode="layer"
     id="layer1"
     transform="translate(0,-41)">
    <path
       style="opacity:1;fill:url(#linearGradient4863);fill-opacity:1;fill-rule:nonzero;stroke:none;stroke-width:0.17472225;stroke-opacity:0.93137255"
       id="path4636"
       d="m 125.27501,154.1944 c -5.82397,3.20593 -9.32485,6.15328 -11.03175,7.41706 -3.15762,2.5006 -6.51069,5.84586 -9.15145,8.89318 -0.54398,0.62773 -1.05063,1.28681 -1.57594,1.93022 -2.48657,3.2273 -4.802705,6.67439 -6.160516,10.54704 -0.2593,0.73958 -0.44971,1.50153 -0.674538,2.25229 -0.7993,3.25526 -1.191168,6.62566 -0.721881,9.96452 0.329288,2.34285 0.558291,2.72203 1.279529,4.92576 1.518791,4.16162 8.394006,11.19706 9.051466,11.74966 3.44844,2.63647 7.60846,5.26769 11.86996,5.94686 3.45823,0.55115 6.92021,2.04414 16.11135,0.8026 9.17085,-0.7385 16.11278,-5.80096 18.50221,-7.7421 0.81253,-0.56135 4.68627,-4.28499 7.06575,-8.9946 2.31501,-3.74901 4.09345,-11.69026 4.64001,-14.67305 1.00365,-6.12674 0.95426,-12.39266 -0.26214,-18.48886 -0.88503,-4.43546 -1.50787,-5.72733 -3.00819,-10.01768 -2.96886,-7.18853 -7.22292,-13.77514 -12.43171,-19.54614 -3.77661,-4.18427 -5.22859,-5.23291 -9.48437,-8.9613 -4.94606,-3.79532 -10.04095,-7.42907 -15.47161,-10.50752 -2.48286,-1.40748 -7.3802,-3.82088 -10.02971,-5.02148 -1.54724,-0.70111 -3.12489,-1.33315 -4.68732,-1.99974 -6.28142,-2.51644 -12.750608,-4.52644 -19.376667,-5.89408 -1.809245,-0.3722 -3.626357,-0.73753 -5.470303,-0.88178 L 99.264235,95.458468 v 0 c 1.510535,0.567264 3.024315,1.126783 4.549145,1.653937 6.01705,2.142345 11.96561,4.477075 17.68362,7.338655 1.50771,0.72866 3.03276,1.42248 4.52311,2.18601 3.53937,1.81325 6.18509,3.36406 9.59344,5.44891 5.34051,3.2667 10.59757,6.69638 15.26837,10.89464 1.71575,1.45947 3.48735,2.85575 5.14726,4.37849 3.24026,2.97238 6.09835,6.05646 8.89069,9.44792 1.30856,1.58939 2.6159,3.18697 3.77373,4.88927 2.35373,3.46059 3.49513,6.17132 5.30535,9.91676 0.65104,1.69418 1.38343,3.35931 1.95311,5.08256 2.05454,6.21467 3.1023,12.85866 2.94368,19.40593 -0.0338,1.39885 -0.20209,2.7912 -0.30312,4.18681 -0.42807,3.56161 -0.81942,7.18232 -1.92324,10.61795 -0.89575,2.78787 -5.59238,16.59262 -15.98518,24.04818 -13.3929,11.14247 -25.81595,12.90862 -32.5562,13.30539 -9.94358,1.0317 -22.02513,-0.20326 -26.36341,-1.70587 -3.438725,-1.04992 -6.65536,-2.75141 -9.458663,-4.99882 -1.630089,-1.44631 -2.504654,-2.12633 -3.938296,-3.78797 -2.462046,-2.85351 -4.222263,-6.20261 -5.805025,-9.59781 -0.58837,-1.98121 -1.008483,-3.19615 -1.372084,-5.24953 -0.294682,-1.66429 -0.479562,-3.68341 -0.397744,-5.37866 0.04096,-0.84925 0.555603,-4.237 0.675475,-5.05969 0.526757,-2.12384 0.580593,-2.69391 1.432516,-4.71827 1.320083,-3.13682 3.217472,-5.98262 5.202829,-8.7279 0.514066,-0.67907 1.003228,-1.37774 1.542164,-2.03721 2.516549,-3.07944 5.398517,-5.86637 8.403063,-8.46135 11.881485,-10.47285 29.558685,-15.33539 27.226185,-14.3424 z"
       inkscape:connector-curvature="0"
       sodipodi:nodetypes="ccccccsccsccccccscssccccccccscccscccccccccccsccscccc" />
  </g>
</svg>
