<?xml version="1.0" encoding="UTF-8" standalone="no"?>
<!-- Created with Inkscape (http://www.inkscape.org/) -->

<svg
   xmlns:dc="http://purl.org/dc/elements/1.1/"
   xmlns:cc="http://creativecommons.org/ns#"
   xmlns:rdf="http://www.w3.org/1999/02/22-rdf-syntax-ns#"
   xmlns:svg="http://www.w3.org/2000/svg"
   xmlns="http://www.w3.org/2000/svg"
   xmlns:xlink="http://www.w3.org/1999/xlink"
   xmlns:sodipodi="http://sodipodi.sourceforge.net/DTD/sodipodi-0.dtd"
   xmlns:inkscape="http://www.inkscape.org/namespaces/inkscape"
   width="256mm"
   height="256mm"
   viewBox="0 0 256 256"
   version="1.1"
   id="svg8"
   inkscape:version="0.92.2 5c3e80d, 2017-08-06"
   sodipodi:docname="detecto.svg">
  <defs
     id="defs2">
    <linearGradient
       id="linearGradient4869"
       inkscape:collect="always">
      <stop
         id="stop4865"
         offset="0"
         style="stop-color:#01cbf4;stop-opacity:1" />
      <stop
         id="stop4867"
         offset="1"
         style="stop-color:#2c8aff;stop-opacity:1" />
    </linearGradient>
    <linearGradient
       inkscape:collect="always"
       id="linearGradient4813">
      <stop
         style="stop-color:#2aaaff;stop-opacity:1"
         offset="0"
         id="stop4809" />
      <stop
         style="stop-color:#5594d2;stop-opacity:1"
         offset="1"
         id="stop4811" />
    </linearGradient>
    <inkscape:path-effect
       effect="bspline"
       id="path-effect4570"
       is_visible="true"
       weight="33.333333"
       steps="2"
       helper_size="0"
       apply_no_weight="true"
       apply_with_weight="true"
       only_selected="false" />
    <inkscape:path-effect
       effect="bspline"
       id="path-effect4566"
       is_visible="true"
       weight="33.333333"
       steps="2"
       helper_size="0"
       apply_no_weight="true"
       apply_with_weight="true"
       only_selected="false" />
    <inkscape:path-effect
       effect="bspline"
       id="path-effect4562"
       is_visible="true"
       weight="33.333333"
       steps="2"
       helper_size="0"
       apply_no_weight="true"
       apply_with_weight="true"
       only_selected="false" />
    <linearGradient
       inkscape:collect="always"
       xlink:href="#linearGradient4813"
       id="linearGradient4815"
       x1="34.989506"
       y1="164.03886"
       x2="183.86546"
       y2="164.03886"
       gradientUnits="userSpaceOnUse" />
    <linearGradient
       inkscape:collect="always"
       xlink:href="#linearGradient4869"
       id="linearGradient4863"
       gradientUnits="userSpaceOnUse"
       x1="40.39748"
       y1="79.076012"
       x2="165.37282"
       y2="258.72122"
       gradientTransform="matrix(0.36600697,0,0,0.36600697,85.881721,70.441615)" />
  </defs>
  <sodipodi:namedview
     id="base"
     pagecolor="#ffffff"
     bordercolor="#666666"
     borderopacity="1.0"
     inkscape:pageopacity="0.0"
     inkscape:pageshadow="2"
     inkscape:zoom="0.35768718"
     inkscape:cx="-89.919372"
     inkscape:cy="431.99807"
     inkscape:document-units="mm"
     inkscape:current-layer="layer1"
     showgrid="false"
     inkscape:snap-page="true"
     inkscape:window-width="1280"
     inkscape:window-height="746"
     inkscape:window-x="0"
     inkscape:window-y="0"
     inkscape:window-maximized="0"
     showguides="false" />
  <metadata
     id="metadata5">
    <rdf:RDF>
      <cc:Work
         rdf:about="">
        <dc:format>image/svg+xml</dc:format>
        <dc:type
           rdf:resource="http://purl.org/dc/dcmitype/StillImage" />
        <dc:title />
      </cc:Work>
    </rdf:RDF>
  </metadata>
  <g
     inkscape:label="Layer 1"
     inkscape:groupmode="layer"
     id="layer1"
     transform="translate(0,-41)">
    <path
       style="opacity:1;fill:url(#linearGradient4863);fill-opacity:1;fill-rule:nonzero;stroke:none;stroke-width:0.09683934;stroke-opacity:0.93137255"
       id="path4636"
       d="m 123.4015,126.15364 c -3.22792,1.77688 -5.16827,3.41044 -6.11432,4.11089 -1.7501,1.38595 -3.60853,3.24005 -5.07217,4.92902 -0.30149,0.34792 -0.5823,0.71321 -0.87345,1.06982 -1.37818,1.78872 -2.66189,3.69926 -3.41446,5.84567 -0.14371,0.40991 -0.24925,0.83222 -0.37386,1.24832 -0.44301,1.80422 -0.6602,3.67226 -0.4001,5.52281 0.18251,1.29852 0.30943,1.50868 0.70918,2.73009 0.84178,2.30657 4.65235,6.20594 5.01675,6.51222 1.91129,1.46126 4.21697,2.9196 6.57889,3.29603 1.91672,0.30547 3.83551,1.13296 8.92968,0.44484 5.08291,-0.40931 8.93046,-3.21517 10.25479,-4.29104 0.45035,-0.31112 2.59736,-2.37494 3.91618,-4.98523 1.28309,-2.07788 2.26878,-6.4793 2.57171,-8.1325 0.55627,-3.39573 0.5289,-6.8686 -0.14529,-10.2474 -0.49052,-2.45834 -0.83573,-3.17436 -1.66728,-5.55227 -1.64548,-3.98423 -4.00328,-7.63484 -6.89024,-10.8334 -2.09317,-2.31912 -2.89793,-2.90033 -5.25669,-4.96678 -2.74134,-2.10354 -5.56517,-4.11754 -8.5751,-5.82376 -1.37612,-0.78009 -4.09045,-2.11771 -5.55894,-2.78314 -0.85755,-0.38859 -1.73196,-0.73889 -2.59793,-1.10835 -3.48146,-1.39473 -7.06699,-2.50877 -10.73947,-3.266775 -1.00277,-0.20629 -2.0099,-0.408773 -3.0319,-0.488722 l 8.31762,-5.784567 v 0 c 0.83721,0.314406 1.67622,0.624515 2.52135,0.916688 3.33493,1.187392 6.63191,2.481412 9.8011,4.067424 0.83564,0.403862 1.6809,0.788414 2.50692,1.2116 1.96169,1.004982 3.42807,1.864512 5.31714,3.020042 2.95996,1.81055 5.87367,3.71145 8.46245,6.03832 0.95095,0.80891 1.93286,1.58279 2.85286,2.42676 1.7959,1.64744 3.37999,3.35678 4.92763,5.23649 0.72527,0.88091 1.44986,1.76637 2.09159,2.70987 1.30455,1.91802 1.93716,3.42043 2.94047,5.49633 0.36084,0.939 0.76677,1.86189 1.08251,2.817 1.13872,3.44446 1.71944,7.12688 1.63153,10.75568 -0.0187,0.77531 -0.11201,1.54702 -0.16801,2.32053 -0.23725,1.97401 -0.45416,3.98078 -1.06595,5.88497 -0.49646,1.54517 -3.09956,9.19642 -8.85974,13.32864 -7.42298,6.17568 -14.30842,7.15457 -18.04419,7.37448 -5.5112,0.57182 -12.20737,-0.11266 -14.61185,-0.94548 -1.9059,-0.58191 -3.68872,-1.52496 -5.24244,-2.77058 -0.90347,-0.80161 -1.3882,-1.17851 -2.18279,-2.09947 -1.36458,-1.58155 -2.34018,-3.43778 -3.217428,-5.31956 -0.326091,-1.09808 -0.558941,-1.77146 -0.760461,-2.90954 -0.163332,-0.92243 -0.265806,-2.04152 -0.220452,-2.98111 0.02272,-0.47069 0.307939,-2.34834 0.37438,-2.80432 0.291944,-1.17713 0.321785,-1.49309 0.79397,-2.61509 0.731651,-1.73857 1.783271,-3.31585 2.883651,-4.83741 0.28492,-0.37637 0.55604,-0.76361 0.85474,-1.12912 1.39479,-1.70677 2.99212,-3.25142 4.65738,-4.68968 6.58528,-5.80455 16.38282,-8.4996 15.09004,-7.94924 z"
       inkscape:connector-curvature="0"
       sodipodi:nodetypes="ccccccsccsccccccscssccccccccscccscccccccccccsccscccc" />
  </g>
</svg>
