<?xml version="1.0" encoding="UTF-8" standalone="no"?>
<svg
   xmlns:dc="http://purl.org/dc/elements/1.1/"
   xmlns:cc="http://creativecommons.org/ns#"
   xmlns:rdf="http://www.w3.org/1999/02/22-rdf-syntax-ns#"
   xmlns:svg="http://www.w3.org/2000/svg"
   xmlns="http://www.w3.org/2000/svg"
   xmlns:sodipodi="http://sodipodi.sourceforge.net/DTD/sodipodi-0.dtd"
   xmlns:inkscape="http://www.inkscape.org/namespaces/inkscape"
   id="svg2"
   sodipodi:docname="gravity_simulation.svg"
   viewBox="0 0 800 800"
   version="1.1"
   inkscape:version="0.92.2 5c3e80d, 2017-08-06"
   width="800"
   height="800">
  <defs
     id="defs7" />
  <sodipodi:namedview
     id="namedview10"
     bordercolor="#666666"
     inkscape:pageshadow="2"
     guidetolerance="10"
     pagecolor="#ffffff"
     gridtolerance="10"
     inkscape:window-maximized="0"
     inkscape:zoom="0.45894952"
     objecttolerance="10"
     borderopacity="1"
     inkscape:current-layer="svg2"
     inkscape:cx="488.34442"
     inkscape:cy="274.63359"
     inkscape:window-y="1"
     inkscape:window-x="0"
     inkscape:window-width="1104"
     showgrid="false"
     inkscape:pageopacity="0"
     inkscape:window-height="725" />
  <circle
     id="circle4"
     style="fill:#235c96;stroke-width:2.21514964"
     cy="388.82019"
     cx="401.64468"
     r="172.78168" />
  <path
     id="path6"
     style="fill:#94ba32;stroke-width:2.21514964"
     inkscape:connector-curvature="0"
     d="m 246.58422,388.82012 c 0,34.55634 11.07574,66.01145 30.12603,91.7072 L 269.62177,431.351 Z m 33.22724,-96.13749 20.37939,-4.87333 c 17.27815,-25.2527 41.6448,-38.5436 63.7963,-42.53087 l -34.99937,24.36665 34.55633,-8.41757 24.80968,-13.73394 -7.08848,-12.40483 c -40.75875,5.31637 -77.08721,26.58179 -101.45385,57.59389 z m 22.59453,95.69446 14.61998,29.23998 43.41693,3.98728 23.48059,88.60597 h 28.79695 l 32.7842,-39.87269 -1.77211,-24.80967 c 14.17694,-11.07576 25.25271,-24.80968 29.683,-42.53089 l -22.1515,5.31636 -28.79694,-45.18904 6.64545,-4.43029 28.35391,39.87268 27.91088,-24.36664 c -14.61999,-1.77212 -24.36663,-8.86059 -28.35391,-21.26544 l 50.50541,7.97454 18.16422,37.21452 7.97455,-49.61935 22.59453,26.58179 c -5.7594,-65.56842 -52.72057,-119.61807 -114.74475,-136.01019 0,15.06303 -8.41758,27.46786 -20.37939,34.55633 l -15.94907,-9.30362 -30.56905,17.7212 10.63271,10.18969 16.3921,-19.49332 -3.1012,23.92362 c -19.93635,0 -29.68302,3.1012 -42.08784,9.74666 l -2.65819,12.40483 -13.73394,-3.1012 -5.75937,15.50604 11.9618,3.54424 c 6.64544,-8.41757 11.96181,-13.73392 24.80968,-16.83514 l 13.29089,14.61999 -7.97453,2.65819 4.87333,3.98725 7.08848,-8.41756 -10.18969,-14.17697 c 10.18969,0 15.94908,6.20242 19.49331,21.70848 l 18.16424,-26.5818 22.15149,9.30364 -2.21515,5.75938 -26.13876,2.21515 v 9.74665 l 19.93634,1.32909 -6.20242,15.94909 c -36.32845,0 -46.96117,-0.88607 -54.49269,-17.27818 l -30.12602,-1.77212 c -22.1515,13.2909 -33.22724,30.56907 -36.32845,51.39147 z m 42.97389,-91.70718 17.72121,4.43029 v -17.72118 z m 98.35265,17.27816 8.8606,-4.87331 11.96181,24.80967 -7.97456,1.77211 z m 4.87332,176.76893 7.97453,3.10122 13.29091,-30.56907 -16.83513,10.63272 z" />
  <metadata
     id="metadata8">
    <rdf:RDF>
      <cc:Work>
        <dc:format>image/svg+xml</dc:format>
        <dc:type
           rdf:resource="http://purl.org/dc/dcmitype/StillImage" />
        <cc:license
           rdf:resource="http://creativecommons.org/publicdomain/zero/1.0/" />
        <dc:publisher>
          <cc:Agent
             rdf:about="http://openclipart.org/">
            <dc:title>Openclipart</dc:title>
          </cc:Agent>
        </dc:publisher>
        <dc:title></dc:title>
      </cc:Work>
      <cc:License
         rdf:about="http://creativecommons.org/publicdomain/zero/1.0/">
        <cc:permits
           rdf:resource="http://creativecommons.org/ns#Reproduction" />
        <cc:permits
           rdf:resource="http://creativecommons.org/ns#Distribution" />
        <cc:permits
           rdf:resource="http://creativecommons.org/ns#DerivativeWorks" />
      </cc:License>
    </rdf:RDF>
  </metadata>
</svg>
